HIERARCHY
ROOT Hips
{
	OFFSET 0.000000 0.000000 0.000000
	CHANNELS 6 Xposition Yposition Zposition Zrotation Yrotation Xrotation 
	JOINT LowerBack
	{
		OFFSET 0.000000 0.000000 0.000000
		CHANNELS 3 Zrotation Yrotation Xrotation
		JOINT Spine
		{
			OFFSET 0.028270 2.035590 -0.193380
			CHANNELS 3 Zrotation Yrotation Xrotation
			JOINT Spine1
			{
				OFFSET 0.056720 2.048850 -0.042750
				CHANNELS 3 Zrotation Yrotation Xrotation
				JOINT Neck
				{
					OFFSET 0.000000 0.000000 0.000000
					CHANNELS 3 Zrotation Yrotation Xrotation
					JOINT Neck1
					{
						OFFSET -0.054170 1.746240 0.172020
						CHANNELS 3 Zrotation Yrotation Xrotation
						JOINT Head
						{
							OFFSET 0.104070 1.761360 -0.123970
							CHANNELS 3 Zrotation Yrotation Xrotation
							End Site
							{
								OFFSET 0.000000 0.000000 0.000000
							}
						}
					}
				}
				JOINT LeftShoulder
				{
					OFFSET 0.000000 0.000000 0.000000
					CHANNELS 3 Zrotation Yrotation Xrotation
					JOINT LeftArm
					{
						OFFSET 3.362410 1.200890 -0.311210
						CHANNELS 3 Zrotation Yrotation Xrotation
						JOINT LeftForeArm
						{
							OFFSET 4.983000 -0.000000 -0.000000
							CHANNELS 3 Zrotation Yrotation Xrotation
							JOINT LeftHand
							{
								OFFSET 3.483560 -0.000000 -0.000000
								CHANNELS 3 Zrotation Yrotation Xrotation
								JOINT LeftFingerBase
								{
									OFFSET 0.000000 0.000000 0.000000
									CHANNELS 3 Zrotation Yrotation Xrotation
									JOINT LeftHandIndex1
									{
										OFFSET 0.715260 -0.000000 -0.000000
										CHANNELS 3 Zrotation Yrotation Xrotation
										End Site
										{
											OFFSET 0.000000 0.000000 0.000000
										}
									}
								}
								JOINT LThumb
								{
									OFFSET 0.000000 0.000000 0.000000
									CHANNELS 3 Zrotation Yrotation Xrotation
									End Site
									{
										OFFSET 0.000000 0.000000 0.000000
									}
								}
							}
						}
					}
				}
				JOINT RightShoulder
				{
					OFFSET 0.000000 0.000000 0.000000
					CHANNELS 3 Zrotation Yrotation Xrotation
					JOINT RightArm
					{
						OFFSET -3.136600 1.374050 -0.404650
						CHANNELS 3 Zrotation Yrotation Xrotation
						JOINT RightForeArm
						{
							OFFSET -5.241900 -0.000000 -0.000000
							CHANNELS 3 Zrotation Yrotation Xrotation
							JOINT RightHand
							{
								OFFSET -3.444170 -0.000000 -0.000000
								CHANNELS 3 Zrotation Yrotation Xrotation
								JOINT RightFingerBase
								{
									OFFSET 0.000000 0.000000 0.000000
									CHANNELS 3 Zrotation Yrotation Xrotation
									JOINT RightHandIndex1
									{
										OFFSET -0.622530 -0.000000 -0.000000
										CHANNELS 3 Zrotation Yrotation Xrotation
										End Site
										{
											OFFSET 0.000000 0.000000 0.000000
										}
									}
								}
								JOINT RThumb
								{
									OFFSET 0.000000 0.000000 0.000000
									CHANNELS 3 Zrotation Yrotation Xrotation
									End Site
									{
										OFFSET 0.000000 0.000000 0.000000
									}
								}
							}
						}
					}
				}
			}
		}
	}
}
}
MOTION
Frames: 15
Frame Time: 0.008333
-11.187442 16.757118 -0.336997 -14.033619 84.268636 12.239546 9.137002 -2.316024 2.670021 1.094204 -2.701915 -2.306756 -6.738611 -2.792957 0.741489 16.721801 1.310057 2.625286 -3.540992 -0.330678 2.468866 0.000000 0.000000 0.000000 -4.954059 -5.517385 1.503663 -61.233146 -28.202665 18.945164 -2.578884 -46.109554 -0.018562 6.331023 -2.631375 -0.163056 -0.169219 0.261513 -0.000000 0.000000 0.000000 0.000000 0.000000 0.000000 0.000000 20.578717 -1.522828 1.002277 56.490549 12.397583 -4.531239 3.139166 26.777269 0.010159 1.229525 7.905124 0.081900 0.059143 -0.067294 -0.000000 0.000000 0.000000 0.000000 0.000000 0.000000 0.000000 
-11.003556 16.748619 -0.311862 -18.150883 84.743202 8.173209 9.898776 -2.334494 2.603084 1.263021 -2.756110 -2.328658 -6.714227 -2.853356 0.738410 16.637470 1.541170 2.697097 -3.561160 -0.331876 2.491348 0.000000 0.000000 0.000000 -5.244892 -5.594922 1.505438 -61.672095 -27.744375 18.318952 -2.608533 -44.895354 -0.019277 6.628068 -2.725929 -0.175991 -0.168540 0.257595 0.000000 0.000000 0.000000 0.000000 0.000000 0.000000 0.000000 20.567624 -1.443911 0.979964 56.373511 12.676696 -5.740235 3.172081 25.441088 0.010095 0.823345 7.991874 0.053989 0.061666 -0.066569 -0.000000 0.000000 0.000000 0.000000 0.000000 0.000000 0.000000 
-10.823489 16.745691 -0.286656 -22.861544 85.225051 3.466037 10.610220 -2.371036 2.588670 1.424884 -2.821133 -2.339894 -6.680632 -2.924422 0.732559 16.568067 1.819270 2.787814 -3.571757 -0.332615 2.517251 0.000000 0.000000 0.000000 -5.482727 -5.677335 1.502370 -62.177760 -27.292314 17.627157 -2.631625 -43.574268 -0.020205 6.978581 -2.802153 -0.189634 -0.167789 0.253208 0.000000 0.000000 0.000000 0.000000 0.000000 0.000000 0.000000 20.527817 -1.320610 0.955739 56.319560 13.005038 -7.092875 3.197694 23.976143 0.009946 0.389341 8.056372 0.023479 0.063857 -0.066203 -0.000000 0.000000 0.000000 0.000000 0.000000 0.000000 0.000000 
-10.647513 16.747736 -0.260450 -27.898242 85.680632 -1.612770 11.229027 -2.419952 2.624763 1.569914 -2.889496 -2.340287 -6.637921 -2.998463 0.726441 16.516580 2.136832 2.894737 -3.572434 -0.332885 2.545750 0.000000 0.000000 0.000000 -5.658933 -5.757121 1.494147 -62.728914 -26.848905 16.886745 -2.647263 -42.168553 -0.021274 7.370511 -2.852673 -0.203183 -0.166922 0.248226 0.000000 0.000000 0.000000 0.000000 0.000000 0.000000 0.000000 20.461759 -1.154323 0.930101 56.338677 13.385848 -8.585766 3.214571 22.393649 0.009697 -0.067715 8.091160 -0.009233 0.065686 -0.066252 -0.000000 0.000000 0.000000 0.000000 0.000000 0.000000 0.000000 
-10.475786 16.754018 -0.231958 -32.652760 86.065015 -6.450721 11.707479 -2.468081 2.712705 1.685617 -2.946295 -2.328036 -6.588106 -3.060208 0.724054 16.488440 2.468616 3.011297 -3.565417 -0.332796 2.574927 0.000000 0.000000 0.000000 -5.757179 -5.829184 1.477638 -63.303787 -26.408526 16.113065 -2.654582 -40.707749 -0.022378 7.784898 -2.874931 -0.215637 -0.165800 0.242499 0.000000 0.000000 0.000000 0.000000 0.000000 0.000000 0.000000 20.387417 -0.963851 0.904403 56.429305 13.844353 -10.167451 3.222098 20.698889 0.009337 -0.557913 8.098395 -0.044345 0.067263 -0.066758 -0.000000 0.000000 0.000000 0.000000 0.000000 0.000000 0.000000 
-10.308072 16.763701 -0.200802 -36.980788 86.365107 -10.894666 12.061375 -2.506809 2.844634 1.774275 -2.984461 -2.305187 -6.532996 -3.102690 0.723235 16.479756 2.833536 3.140704 -3.548750 -0.332292 2.605980 0.000000 0.000000 0.000000 -5.795292 -5.881059 1.458214 -63.869654 -25.974745 15.346869 -2.655802 -39.221383 -0.023416 8.199577 -2.859131 -0.225295 -0.164497 0.236022 0.000000 0.000000 0.000000 0.000000 0.000000 0.000000 0.000000 20.290096 -0.718557 0.879142 56.606447 14.327905 -11.879907 3.218188 18.950814 0.008845 -1.049321 8.060763 -0.079158 0.068416 -0.067732 -0.000000 0.000000 0.000000 0.000000 0.000000 0.000000 0.000000 
-10.144056 16.776003 -0.166087 -40.388915 86.573568 -14.443144 12.281924 -2.528452 3.016147 1.832403 -2.996942 -2.269922 -6.476116 -3.118458 0.731517 16.493100 3.181133 3.269568 -3.527490 -0.331569 2.635266 0.000000 0.000000 0.000000 -5.765652 -5.910547 1.432355 -64.407201 -25.543760 14.613434 -2.652351 -37.742639 -0.024256 8.586746 -2.806596 -0.231253 -0.162916 0.228767 0.000000 0.000000 0.000000 0.000000 0.000000 0.000000 0.000000 20.198214 -0.470392 0.854589 56.848037 14.890459 -13.597814 3.204702 17.150526 0.008241 -1.568037 7.992637 -0.115170 0.069451 -0.069103 -0.000000 0.000000 0.000000 0.000000 0.000000 0.000000 0.000000 
-9.983256 16.790247 -0.127831 -42.880422 86.710480 -17.091581 12.394208 -2.533179 3.213997 1.865492 -2.986366 -2.226359 -6.418897 -3.110410 0.743998 16.523874 3.535174 3.402839 -3.500058 -0.330619 2.664633 0.000000 0.000000 0.000000 -5.691022 -5.916766 1.407459 -64.887792 -25.110691 13.955434 -2.648504 -36.303253 -0.024809 8.917889 -2.709994 -0.231808 -0.161180 0.220863 0.000000 0.000000 0.000000 0.000000 0.000000 0.000000 0.000000 20.098397 -0.188978 0.830652 57.163332 15.462191 -15.338662 3.179949 15.379309 0.007509 -2.080838 7.879620 -0.149283 0.070192 -0.070764 -0.000000 0.000000 0.000000 0.000000 0.000000 0.000000 0.000000 
-9.825141 16.805992 -0.086150 -44.426607 86.796652 -18.803153 12.409801 -2.522031 3.425755 1.875979 -2.955736 -2.176861 -6.363154 -3.081535 0.761676 16.568152 3.878923 3.535271 -3.468791 -0.329553 2.692974 0.000000 0.000000 0.000000 -5.584329 -5.902528 1.385469 -65.293851 -24.669672 13.404726 -2.647766 -34.933547 -0.024989 9.164279 -2.568610 -0.225959 -0.159318 0.212423 0.000000 0.000000 0.000000 0.000000 0.000000 0.000000 0.000000 19.998267 0.107422 0.806988 57.540787 16.038090 -17.017054 3.145786 13.682682 0.006672 -2.584710 7.724374 -0.180796 0.070751 -0.072550 -0.000000 0.000000 0.000000 0.000000 0.000000 0.000000 0.000000 
-9.669175 16.823004 -0.041355 -45.050517 86.851126 -19.591234 12.338946 -2.496135 3.639088 1.865972 -2.908065 -2.123853 -6.310579 -3.034827 0.785809 16.620472 4.194343 3.661159 -3.436466 -0.328493 2.719030 0.000000 0.000000 0.000000 -5.459633 -5.869382 1.367676 -65.612751 -24.218362 12.990411 -2.653528 -33.657670 -0.024739 9.299791 -2.385323 -0.213304 -0.157353 0.203567 0.000000 0.000000 0.000000 0.000000 0.000000 0.000000 0.000000 19.906193 0.398098 0.782969 57.969437 16.618243 -18.536130 3.105537 12.100283 0.005773 -3.073243 7.533576 -0.208907 0.071247 -0.074284 -0.000000 0.000000 0.000000 0.000000 0.000000 0.000000 0.000000 
-9.514780 16.841325 0.005811 -44.851208 86.888258 -19.544706 12.195766 -2.456088 3.840762 1.838393 -2.845946 -2.071679 -6.262531 -2.973086 0.812111 16.674289 4.486542 3.781887 -3.404283 -0.327538 2.743627 0.000000 0.000000 0.000000 -5.336295 -5.827821 1.357463 -65.832304 -23.740636 12.727792 -2.667918 -32.507256 -0.024051 9.300670 -2.156420 -0.193641 -0.155239 0.194407 0.000000 0.000000 0.000000 0.000000 0.000000 0.000000 0.000000 19.820798 0.688078 0.758670 58.446750 17.164109 -19.835450 3.062068 10.702798 0.004845 -3.518561 7.296824 -0.231220 0.071656 -0.075768 -0.000000 0.000000 0.000000 0.000000 0.000000 0.000000 0.000000 
-9.361779 16.861173 0.054227 -44.086995 86.916332 -18.917828 12.004042 -2.404497 4.028881 1.798696 -2.773073 -2.019286 -6.218686 -2.899862 0.847082 16.714233 4.724853 3.885765 -3.374587 -0.326668 2.763615 0.000000 0.000000 0.000000 -5.231072 -5.760290 1.352835 -65.957236 -23.268385 12.648480 -2.693234 -31.467318 -0.022913 9.161315 -1.907446 -0.169770 -0.153069 0.185111 0.000000 0.000000 0.000000 0.000000 0.000000 0.000000 0.000000 19.739385 0.941220 0.732232 58.962441 17.733106 -20.837134 3.022017 9.451628 0.003993 -3.915775 7.065486 -0.248831 0.072178 -0.077029 -0.000000 0.000000 0.000000 0.000000 0.000000 0.000000 0.000000 
-9.209648 16.882920 0.103258 -42.718982 86.938388 -17.661398 11.770232 -2.339303 4.192733 1.747668 -2.688694 -1.972000 -6.180829 -2.814785 0.880968 16.737777 4.933979 3.981645 -3.348137 -0.326033 2.781924 0.000000 0.000000 0.000000 -5.156526 -5.691332 1.357653 -65.979871 -22.764672 12.733219 -2.728573 -30.577236 -0.021388 8.867122 -1.629150 -0.141592 -0.150644 0.175725 0.000000 0.000000 0.000000 0.000000 0.000000 0.000000 0.000000 19.661810 1.183917 0.704737 59.518326 18.256839 -21.522773 2.986921 8.438569 0.003239 -4.219486 6.811248 -0.258240 0.072613 -0.077881 -0.000000 0.000000 0.000000 0.000000 0.000000 0.000000 0.000000 
-9.058293 16.906966 0.151899 -40.909030 86.954607 -15.935048 11.511971 -2.261788 4.333279 1.689203 -2.594493 -1.929476 -6.148879 -2.719559 0.915469 16.734524 5.103761 4.065082 -3.326424 -0.325639 2.797424 0.000000 0.000000 0.000000 -5.122836 -5.613972 1.370814 -65.908121 -22.245135 12.982270 -2.773515 -29.827090 -0.019530 8.425476 -1.341322 -0.112306 -0.147970 0.166369 0.000000 0.000000 0.000000 0.000000 0.000000 0.000000 0.000000 19.585394 1.402415 0.675094 60.107427 18.761620 -21.870903 2.960823 7.643748 0.002660 -4.412491 6.568843 -0.260447 0.072966 -0.078389 -0.000000 0.000000 0.000000 0.000000 0.000000 0.000000 0.000000 
-8.907624 16.933743 0.199404 -38.753410 86.963549 -13.835070 11.239921 -2.171942 4.452518 1.625534 -2.490480 -1.893190 -6.122851 -2.614436 0.944618 16.700389 5.243523 4.140818 -3.310046 -0.325555 2.811612 0.000000 0.000000 0.000000 -5.129665 -5.548914 1.392405 -65.752068 -21.688288 13.357405 -2.825027 -29.226551 -0.017429 7.848004 -1.053680 -0.083917 -0.144915 0.157135 0.000000 0.000000 0.000000 0.000000 0.000000 0.000000 0.000000 19.508092 1.604301 0.644250 60.724701 19.227939 -21.858880 2.944912 7.094858 0.002276 -4.481789 6.341381 -0.255450 0.073141 -0.078546 -0.000000 0.000000 0.000000 0.000000 0.000000 0.000000 0.000000 
